<mxfile modified="2023-06-17T03:43:17.948Z" host="app.diagrams.net" agent="Mozilla/5.0 (Macintosh; Intel Mac OS X 10_15_7) AppleWebKit/537.36 (KHTML, like Gecko) Chrome/114.0.0.0 Safari/537.36" etag="gsRtDmifXoh9Z3fBw_9j" version="21.4.0" type="github">
  <diagram id="Ht1M8jgEwFfnCIfOTk4-" name="Page-1">
    <mxGraphModel dx="934" dy="2261" grid="1" gridSize="10" guides="1" tooltips="1" connect="1" arrows="1" fold="1" page="1" pageScale="1" pageWidth="1169" pageHeight="827" math="0" shadow="0">
      <root>
        <mxCell id="0" />
        <mxCell id="1" parent="0" />
        <mxCell id="rrqpF3fpNrmH_sACsyyU-1" value="" style="sketch=0;points=[[0,0,0],[0.25,0,0],[0.5,0,0],[0.75,0,0],[1,0,0],[0,1,0],[0.25,1,0],[0.5,1,0],[0.75,1,0],[1,1,0],[0,0.25,0],[0,0.5,0],[0,0.75,0],[1,0.25,0],[1,0.5,0],[1,0.75,0]];outlineConnect=0;fontColor=#232F3E;gradientColor=#4D72F3;gradientDirection=north;fillColor=#3334B9;strokeColor=#ffffff;dashed=0;verticalLabelPosition=bottom;verticalAlign=top;align=center;html=1;fontSize=12;fontStyle=0;aspect=fixed;shape=mxgraph.aws4.resourceIcon;resIcon=mxgraph.aws4.database;" vertex="1" parent="1">
          <mxGeometry x="80" y="-749.5" width="49.5" height="49.5" as="geometry" />
        </mxCell>
        <mxCell id="rrqpF3fpNrmH_sACsyyU-3" style="edgeStyle=orthogonalEdgeStyle;rounded=0;orthogonalLoop=1;jettySize=auto;html=1;startArrow=none;startFill=0;endArrow=open;endFill=0;strokeColor=#808080;strokeWidth=2;" edge="1" parent="1">
          <mxGeometry relative="1" as="geometry">
            <mxPoint x="130" y="-725.09" as="sourcePoint" />
            <mxPoint x="182" y="-725" as="targetPoint" />
          </mxGeometry>
        </mxCell>
        <mxCell id="UEzPUAAOIrF-is8g5C7q-177" value="Amazon S3&lt;br&gt;Bucket&lt;br&gt;" style="outlineConnect=0;fontColor=#232F3E;gradientColor=none;fillColor=#277116;strokeColor=none;dashed=0;verticalLabelPosition=bottom;verticalAlign=top;align=center;html=1;fontSize=12;fontStyle=0;aspect=fixed;pointerEvents=1;shape=mxgraph.aws4.bucket;labelBackgroundColor=#ffffff;" parent="1" vertex="1">
          <mxGeometry x="190" y="-749.5" width="48.08" height="50" as="geometry" />
        </mxCell>
        <mxCell id="rrqpF3fpNrmH_sACsyyU-12" value="" style="whiteSpace=wrap;html=1;aspect=fixed;dashed=1;fillColor=none;strokeColor=#CC0000;" vertex="1" parent="1">
          <mxGeometry x="90" y="-850" width="180" height="180" as="geometry" />
        </mxCell>
        <mxCell id="UEzPUAAOIrF-is8g5C7q-197" style="edgeStyle=orthogonalEdgeStyle;rounded=0;orthogonalLoop=1;jettySize=auto;html=1;startArrow=none;startFill=0;endArrow=open;endFill=0;strokeColor=#808080;strokeWidth=2;" parent="1" source="UEzPUAAOIrF-is8g5C7q-177" edge="1">
          <mxGeometry relative="1" as="geometry">
            <mxPoint x="280" y="-719.96" as="sourcePoint" />
            <mxPoint x="180" y="-610" as="targetPoint" />
            <Array as="points">
              <mxPoint x="260" y="-719" />
              <mxPoint x="260" y="-649" />
              <mxPoint x="180" y="-649" />
            </Array>
          </mxGeometry>
        </mxCell>
        <mxCell id="rrqpF3fpNrmH_sACsyyU-10" value="AWS Glue" style="sketch=0;outlineConnect=0;fontColor=#232F3E;gradientColor=none;strokeColor=#ffffff;fillColor=#232F3E;dashed=0;verticalLabelPosition=middle;verticalAlign=bottom;align=center;html=1;whiteSpace=wrap;fontSize=10;fontStyle=1;spacing=3;shape=mxgraph.aws4.productIcon;prIcon=mxgraph.aws4.glue;" vertex="1" parent="1">
          <mxGeometry x="253" y="-610" width="50" height="77.5" as="geometry" />
        </mxCell>
        <mxCell id="rrqpF3fpNrmH_sACsyyU-11" value="" style="endArrow=classic;startArrow=classic;html=1;rounded=0;" edge="1" parent="1">
          <mxGeometry width="50" height="50" relative="1" as="geometry">
            <mxPoint x="217.5" y="-580" as="sourcePoint" />
            <mxPoint x="250" y="-580" as="targetPoint" />
          </mxGeometry>
        </mxCell>
        <mxCell id="rrqpF3fpNrmH_sACsyyU-14" value="" style="outlineConnect=0;dashed=0;verticalLabelPosition=bottom;verticalAlign=top;align=center;html=1;shape=mxgraph.aws3.athena;fillColor=#F58534;gradientColor=none;" vertex="1" parent="1">
          <mxGeometry x="135" y="-800" width="70" height="30" as="geometry" />
        </mxCell>
        <mxCell id="rrqpF3fpNrmH_sACsyyU-17" value="" style="endArrow=classic;startArrow=classic;html=1;rounded=0;" edge="1" parent="1">
          <mxGeometry width="50" height="50" relative="1" as="geometry">
            <mxPoint x="117.5" y="-748.5" as="sourcePoint" />
            <mxPoint x="200" y="-740" as="targetPoint" />
            <Array as="points">
              <mxPoint x="180" y="-780" />
            </Array>
          </mxGeometry>
        </mxCell>
        <mxCell id="rrqpF3fpNrmH_sACsyyU-21" value="Amazon Redshift" style="sketch=0;outlineConnect=0;fontColor=#232F3E;gradientColor=none;strokeColor=#ffffff;fillColor=#232F3E;dashed=0;verticalLabelPosition=middle;verticalAlign=bottom;align=center;html=1;whiteSpace=wrap;fontSize=10;fontStyle=1;spacing=3;shape=mxgraph.aws4.productIcon;prIcon=mxgraph.aws4.redshift;" vertex="1" parent="1">
          <mxGeometry x="130" y="-610" width="80" height="110" as="geometry" />
        </mxCell>
        <mxCell id="rrqpF3fpNrmH_sACsyyU-22" value="DATAWAREHOUSE" style="text;strokeColor=none;align=center;fillColor=none;html=1;verticalAlign=middle;whiteSpace=wrap;rounded=0;fontColor=#CC0000;" vertex="1" parent="1">
          <mxGeometry x="158" y="-829" width="60" height="30" as="geometry" />
        </mxCell>
        <mxCell id="rrqpF3fpNrmH_sACsyyU-24" value="" style="outlineConnect=0;dashed=0;verticalLabelPosition=bottom;verticalAlign=top;align=center;html=1;shape=mxgraph.aws3.ec2;fillColor=#F58534;gradientColor=none;" vertex="1" parent="1">
          <mxGeometry x="198" y="-450" width="41" height="49.5" as="geometry" />
        </mxCell>
        <mxCell id="rrqpF3fpNrmH_sACsyyU-27" value="" style="outlineConnect=0;dashed=0;verticalLabelPosition=bottom;verticalAlign=top;align=center;html=1;shape=mxgraph.aws3.ec2;fillColor=#F58534;gradientColor=none;" vertex="1" parent="1">
          <mxGeometry x="129.5" y="-450" width="41" height="49.5" as="geometry" />
        </mxCell>
        <mxCell id="rrqpF3fpNrmH_sACsyyU-28" value="" style="outlineConnect=0;dashed=0;verticalLabelPosition=bottom;verticalAlign=top;align=center;html=1;shape=mxgraph.aws3.ec2;fillColor=#F58534;gradientColor=none;" vertex="1" parent="1">
          <mxGeometry x="60" y="-450" width="41" height="49.5" as="geometry" />
        </mxCell>
        <mxCell id="rrqpF3fpNrmH_sACsyyU-30" value="" style="outlineConnect=0;dashed=0;verticalLabelPosition=bottom;verticalAlign=top;align=center;html=1;shape=mxgraph.aws3.ec2;fillColor=#F58534;gradientColor=none;" vertex="1" parent="1">
          <mxGeometry x="276" y="-450" width="41" height="49.5" as="geometry" />
        </mxCell>
        <mxCell id="rrqpF3fpNrmH_sACsyyU-31" value="" style="outlineConnect=0;dashed=0;verticalLabelPosition=bottom;verticalAlign=top;align=center;html=1;shape=mxgraph.aws3.ec2;fillColor=#F58534;gradientColor=none;" vertex="1" parent="1">
          <mxGeometry x="350" y="-450" width="41" height="49.5" as="geometry" />
        </mxCell>
        <mxCell id="rrqpF3fpNrmH_sACsyyU-32" value="" style="endArrow=classic;html=1;rounded=0;" edge="1" parent="1" source="rrqpF3fpNrmH_sACsyyU-21" target="rrqpF3fpNrmH_sACsyyU-28">
          <mxGeometry width="50" height="50" relative="1" as="geometry">
            <mxPoint x="170" y="-490" as="sourcePoint" />
            <mxPoint x="200" y="-490" as="targetPoint" />
          </mxGeometry>
        </mxCell>
        <mxCell id="rrqpF3fpNrmH_sACsyyU-33" value="" style="endArrow=classic;html=1;rounded=0;entryX=0.5;entryY=0;entryDx=0;entryDy=0;entryPerimeter=0;" edge="1" parent="1" target="rrqpF3fpNrmH_sACsyyU-31">
          <mxGeometry width="50" height="50" relative="1" as="geometry">
            <mxPoint x="220" y="-510" as="sourcePoint" />
            <mxPoint x="111" y="-430" as="targetPoint" />
          </mxGeometry>
        </mxCell>
        <mxCell id="rrqpF3fpNrmH_sACsyyU-34" value="" style="endArrow=classic;html=1;rounded=0;" edge="1" parent="1" source="rrqpF3fpNrmH_sACsyyU-21" target="rrqpF3fpNrmH_sACsyyU-30">
          <mxGeometry width="50" height="50" relative="1" as="geometry">
            <mxPoint x="230" y="-500" as="sourcePoint" />
            <mxPoint x="380" y="-440" as="targetPoint" />
          </mxGeometry>
        </mxCell>
        <mxCell id="rrqpF3fpNrmH_sACsyyU-35" value="" style="endArrow=classic;html=1;rounded=0;" edge="1" parent="1" source="rrqpF3fpNrmH_sACsyyU-21" target="rrqpF3fpNrmH_sACsyyU-24">
          <mxGeometry width="50" height="50" relative="1" as="geometry">
            <mxPoint x="220" y="-504" as="sourcePoint" />
            <mxPoint x="286" y="-436" as="targetPoint" />
          </mxGeometry>
        </mxCell>
        <mxCell id="rrqpF3fpNrmH_sACsyyU-36" value="" style="endArrow=classic;html=1;rounded=0;" edge="1" parent="1" source="rrqpF3fpNrmH_sACsyyU-21" target="rrqpF3fpNrmH_sACsyyU-27">
          <mxGeometry width="50" height="50" relative="1" as="geometry">
            <mxPoint x="201" y="-490" as="sourcePoint" />
            <mxPoint x="219" y="-440" as="targetPoint" />
          </mxGeometry>
        </mxCell>
        <mxCell id="rrqpF3fpNrmH_sACsyyU-39" value="" style="image;sketch=0;aspect=fixed;html=1;points=[];align=center;fontSize=12;image=img/lib/mscae/Docker.svg;" vertex="1" parent="1">
          <mxGeometry x="40" y="-340" width="50" height="41" as="geometry" />
        </mxCell>
        <mxCell id="rrqpF3fpNrmH_sACsyyU-40" value="" style="image;sketch=0;aspect=fixed;html=1;points=[];align=center;fontSize=12;image=img/lib/mscae/Docker.svg;" vertex="1" parent="1">
          <mxGeometry x="180" y="-340" width="50" height="41" as="geometry" />
        </mxCell>
        <mxCell id="rrqpF3fpNrmH_sACsyyU-41" value="" style="image;sketch=0;aspect=fixed;html=1;points=[];align=center;fontSize=12;image=img/lib/mscae/Docker.svg;" vertex="1" parent="1">
          <mxGeometry x="260" y="-340" width="50" height="41" as="geometry" />
        </mxCell>
        <mxCell id="rrqpF3fpNrmH_sACsyyU-42" value="" style="image;sketch=0;aspect=fixed;html=1;points=[];align=center;fontSize=12;image=img/lib/mscae/Docker.svg;" vertex="1" parent="1">
          <mxGeometry x="345.5" y="-340" width="50" height="41" as="geometry" />
        </mxCell>
        <mxCell id="rrqpF3fpNrmH_sACsyyU-43" value="" style="image;sketch=0;aspect=fixed;html=1;points=[];align=center;fontSize=12;image=img/lib/mscae/Docker.svg;" vertex="1" parent="1">
          <mxGeometry x="108" y="-340" width="50" height="41" as="geometry" />
        </mxCell>
        <mxCell id="rrqpF3fpNrmH_sACsyyU-44" value="" style="endArrow=classic;html=1;rounded=0;" edge="1" parent="1" source="rrqpF3fpNrmH_sACsyyU-31" target="rrqpF3fpNrmH_sACsyyU-42">
          <mxGeometry width="50" height="50" relative="1" as="geometry">
            <mxPoint x="440" y="-410" as="sourcePoint" />
            <mxPoint x="440" y="-320" as="targetPoint" />
          </mxGeometry>
        </mxCell>
        <mxCell id="rrqpF3fpNrmH_sACsyyU-46" value="" style="endArrow=classic;html=1;rounded=0;entryX=0.708;entryY=-0.024;entryDx=0;entryDy=0;entryPerimeter=0;" edge="1" parent="1" source="rrqpF3fpNrmH_sACsyyU-30" target="rrqpF3fpNrmH_sACsyyU-41">
          <mxGeometry width="50" height="50" relative="1" as="geometry">
            <mxPoint x="380" y="-390" as="sourcePoint" />
            <mxPoint x="381" y="-330" as="targetPoint" />
          </mxGeometry>
        </mxCell>
        <mxCell id="rrqpF3fpNrmH_sACsyyU-47" value="" style="endArrow=classic;html=1;rounded=0;" edge="1" parent="1" source="rrqpF3fpNrmH_sACsyyU-24" target="rrqpF3fpNrmH_sACsyyU-40">
          <mxGeometry width="50" height="50" relative="1" as="geometry">
            <mxPoint x="390" y="-380" as="sourcePoint" />
            <mxPoint x="391" y="-320" as="targetPoint" />
          </mxGeometry>
        </mxCell>
        <mxCell id="rrqpF3fpNrmH_sACsyyU-48" value="" style="endArrow=classic;html=1;rounded=0;" edge="1" parent="1" source="rrqpF3fpNrmH_sACsyyU-27" target="rrqpF3fpNrmH_sACsyyU-43">
          <mxGeometry width="50" height="50" relative="1" as="geometry">
            <mxPoint x="400" y="-370" as="sourcePoint" />
            <mxPoint x="401" y="-310" as="targetPoint" />
          </mxGeometry>
        </mxCell>
        <mxCell id="rrqpF3fpNrmH_sACsyyU-49" value="" style="endArrow=classic;html=1;rounded=0;" edge="1" parent="1" source="rrqpF3fpNrmH_sACsyyU-28" target="rrqpF3fpNrmH_sACsyyU-39">
          <mxGeometry width="50" height="50" relative="1" as="geometry">
            <mxPoint x="410" y="-360" as="sourcePoint" />
            <mxPoint x="411" y="-300" as="targetPoint" />
          </mxGeometry>
        </mxCell>
      </root>
    </mxGraphModel>
  </diagram>
</mxfile>
